<mxfile host="app.diagrams.net" modified="2021-01-08T14:58:17.021Z" agent="5.0 (X11)" etag="XQwy_usIIX16zgbv8eYs" version="14.1.8" type="github">
  <diagram name="Page-1" id="e7e014a7-5840-1c2e-5031-d8a46d1fe8dd">
    <mxGraphModel dx="1422" dy="719" grid="1" gridSize="10" guides="1" tooltips="1" connect="1" arrows="1" fold="1" page="1" pageScale="1" pageWidth="1169" pageHeight="826" background="#ffffff" math="0" shadow="0">
      <root>
        <mxCell id="0" />
        <mxCell id="1" parent="0" />
        <mxCell id="2" value="app.module.ts" style="swimlane;whiteSpace=wrap" parent="1" vertex="1">
          <mxGeometry x="40" y="90" width="330" height="570" as="geometry" />
        </mxCell>
        <mxCell id="6" value="" style="edgeStyle=elbowEdgeStyle;elbow=horizontal;verticalAlign=bottom;endArrow=open;endSize=8;strokeColor=#FF0000;endFill=1;rounded=0" parent="2" edge="1">
          <mxGeometry x="100" y="40" as="geometry">
            <mxPoint x="115" y="110" as="targetPoint" />
            <mxPoint x="115" y="70" as="sourcePoint" />
          </mxGeometry>
        </mxCell>
        <mxCell id="lobZnDdRnAItkKINZfBI-42" style="edgeStyle=orthogonalEdgeStyle;rounded=0;orthogonalLoop=1;jettySize=auto;html=1;exitX=0.75;exitY=0;exitDx=0;exitDy=0;entryX=0.75;entryY=1;entryDx=0;entryDy=0;fillColor=#f8cecc;strokeColor=#b85450;" edge="1" parent="2" source="8">
          <mxGeometry relative="1" as="geometry">
            <mxPoint x="142.5" y="330" as="targetPoint" />
          </mxGeometry>
        </mxCell>
        <mxCell id="8" value="edit-add.component" style="" parent="2" vertex="1">
          <mxGeometry x="70" y="510" width="110" height="50" as="geometry" />
        </mxCell>
        <mxCell id="9" value="" style="endArrow=open;strokeColor=#82b366;endFill=1;rounded=0;fillColor=#d5e8d4;" parent="2" target="8" edge="1">
          <mxGeometry relative="1" as="geometry">
            <mxPoint x="118.4920634920635" y="330" as="sourcePoint" />
          </mxGeometry>
        </mxCell>
        <mxCell id="lobZnDdRnAItkKINZfBI-43" value="" style="endArrow=none;html=1;edgeStyle=orthogonalEdgeStyle;entryX=0.327;entryY=-0.04;entryDx=0;entryDy=0;entryPerimeter=0;exitX=0.25;exitY=1;exitDx=0;exitDy=0;" edge="1" parent="2" target="8">
          <mxGeometry relative="1" as="geometry">
            <mxPoint x="87.5" y="330" as="sourcePoint" />
            <mxPoint x="300" y="350" as="targetPoint" />
          </mxGeometry>
        </mxCell>
        <mxCell id="lobZnDdRnAItkKINZfBI-44" value="parent" style="edgeLabel;resizable=0;html=1;align=left;verticalAlign=bottom;" connectable="0" vertex="1" parent="lobZnDdRnAItkKINZfBI-43">
          <mxGeometry x="-1" relative="1" as="geometry" />
        </mxCell>
        <mxCell id="lobZnDdRnAItkKINZfBI-45" value="child" style="edgeLabel;resizable=0;html=1;align=right;verticalAlign=bottom;" connectable="0" vertex="1" parent="lobZnDdRnAItkKINZfBI-43">
          <mxGeometry x="1" relative="1" as="geometry" />
        </mxCell>
        <mxCell id="lobZnDdRnAItkKINZfBI-46" value="&lt;p style=&quot;margin: 0px ; margin-top: 4px ; text-align: center ; text-decoration: underline&quot;&gt;&lt;b&gt;app.component:&lt;/b&gt;&lt;/p&gt;&lt;hr&gt;&lt;p style=&quot;margin: 0px ; margin-left: 8px&quot;&gt;field1 = value1&lt;br&gt;field2 = value2&lt;br&gt;field3 = value3&lt;/p&gt;" style="verticalAlign=top;align=left;overflow=fill;fontSize=12;fontFamily=Helvetica;html=1;" vertex="1" parent="2">
          <mxGeometry x="170" y="120" width="160" height="90" as="geometry" />
        </mxCell>
      </root>
    </mxGraphModel>
  </diagram>
</mxfile>
